<svg width="138" height="50" viewBox="0 0 138 50" fill="none" xmlns="http://www.w3.org/2000/svg">
<path d="M43.8494 6.36028C39.3119 1.47368 5.18017 13.4442 5.20836 17.8146C5.24032 22.7706 18.5377 24.2952 22.2233 25.3294C24.4398 25.951 25.0333 26.5886 25.5444 28.9127C27.859 39.4386 29.021 44.674 31.6696 44.7908C35.8913 44.9775 48.2777 11.1292 43.8494 6.36028Z" fill="white"/>
<path d="M68.4996 39V13.8H79.2996C85.6716 13.8 89.7756 17.076 89.7756 22.656V22.728C89.7756 28.668 85.2036 31.8 78.9396 31.8H75.4836V39H68.4996ZM75.4836 26.328H78.7956C81.2796 26.328 82.7916 25.032 82.7916 23.052V22.98C82.7916 20.82 81.2796 19.668 78.7596 19.668H75.4836V26.328ZM101.798 39.468C95.6785 39.468 91.3585 35.4 91.3585 29.352V29.28C91.3585 23.592 95.4265 19.092 101.186 19.092C107.918 19.092 111.014 24.024 111.014 29.748C111.014 30.18 111.014 30.684 110.978 31.152H97.9465C98.4865 33.276 100.034 34.356 102.158 34.356C103.778 34.356 105.074 33.744 106.478 32.376L110.258 35.508C108.386 37.884 105.686 39.468 101.798 39.468ZM97.8385 27.66H104.606C104.354 25.5 103.094 24.132 101.222 24.132C99.4225 24.132 98.1985 25.536 97.8385 27.66ZM118.793 44.868C116.381 44.868 114.329 44.184 112.529 43.176L114.653 38.388C115.733 39.036 116.885 39.432 117.641 39.432C118.325 39.432 118.793 39.252 119.225 38.64L111.593 19.524H118.757L122.645 31.26L126.317 19.524H133.337L126.209 38.532C124.517 43.068 122.681 44.868 118.793 44.868Z" fill="white"/>
</svg>
